<svg width="38" height="44" viewBox="0 0 38 44" fill="none" xmlns="http://www.w3.org/2000/svg">
<path d="M8.33333 14.6667V10.5C8.33333 7.73733 9.4308 5.08781 11.3843 3.13431C13.3378 1.1808 15.9873 0.0833359 18.75 0.0833359C21.5127 0.0833359 24.1622 1.1808 26.1157 3.13431C28.0692 5.08781 29.1667 7.73733 29.1667 10.5V14.6667H35.4167C35.9692 14.6667 36.4991 14.8862 36.8898 15.2769C37.2805 15.6676 37.5 16.1975 37.5 16.75V41.75C37.5 42.3025 37.2805 42.8324 36.8898 43.2231C36.4991 43.6138 35.9692 43.8333 35.4167 43.8333H2.08333C1.5308 43.8333 1.00089 43.6138 0.610194 43.2231C0.219493 42.8324 0 42.3025 0 41.75V16.75C0 16.1975 0.219493 15.6676 0.610194 15.2769C1.00089 14.8862 1.5308 14.6667 2.08333 14.6667H8.33333ZM8.33333 18.8333H4.16667V39.6667H33.3333V18.8333H29.1667V23H25V18.8333H12.5V23H8.33333V18.8333ZM12.5 14.6667H25V10.5C25 8.8424 24.3415 7.25269 23.1694 6.08059C21.9973 4.90848 20.4076 4.25 18.75 4.25C17.0924 4.25 15.5027 4.90848 14.3306 6.08059C13.1585 7.25269 12.5 8.8424 12.5 10.5V14.6667Z" fill="#131212"/>
</svg>
