<svg width="20" height="14" viewBox="0 0 20 14" fill="none" xmlns="http://www.w3.org/2000/svg">
<path d="M15.105 8.89075C13.7149 8.89075 12.584 10.0216 12.584 11.4118C12.584 12.8019 13.7149 13.9328 15.105 13.9328C16.4954 13.9328 17.626 12.8019 17.626 11.4118C17.626 10.0216 16.4951 8.89075 15.105 8.89075ZM15.105 12.6723C14.4098 12.6723 13.8445 12.1069 13.8445 11.4118C13.8445 10.7166 14.4098 10.1513 15.105 10.1513C15.8002 10.1513 16.3655 10.7166 16.3655 11.4118C16.3655 12.107 15.8002 12.6723 15.105 12.6723Z" fill="black"/>
<path d="M6.4916 8.89075C5.10148 8.89075 3.97058 10.0216 3.97058 11.4118C3.97058 12.8019 5.10148 13.9328 6.4916 13.9328C7.88171 13.9328 9.01261 12.8019 9.01261 11.4118C9.01261 10.0216 7.88171 8.89075 6.4916 8.89075ZM6.4916 12.6723C5.79644 12.6723 5.23109 12.1069 5.23109 11.4118C5.23109 10.7166 5.79644 10.1513 6.4916 10.1513C7.18656 10.1513 7.7521 10.7166 7.7521 11.4118C7.7521 12.107 7.18675 12.6723 6.4916 12.6723Z" fill="black"/>
<path d="M16.8027 1.6748C16.6956 1.46199 16.4777 1.32773 16.2395 1.32773H12.9202V2.58824H15.8508L17.567 6.00168L18.6935 5.43527L16.8027 1.6748Z" fill="black"/>
<path d="M13.2143 10.8025H8.44543V12.063H13.2143V10.8025Z" fill="black"/>
<path d="M19.8677 6.94957L18.628 5.35293C18.5089 5.19914 18.3251 5.10922 18.1303 5.10922H13.5505V0.697464C13.5505 0.349339 13.2683 0.0672302 12.9202 0.0672302H2.416C2.06788 0.0672302 1.78577 0.349378 1.78577 0.697464C1.78577 1.04555 2.06791 1.3277 2.416 1.3277H12.2899V5.73946C12.2899 6.08758 12.5721 6.36969 12.9202 6.36969H17.8217L18.7395 7.55204V10.8025H16.9958C16.6477 10.8025 16.3656 11.0846 16.3656 11.4327C16.3656 11.7808 16.6477 12.0629 16.9958 12.0629H19.3698C19.7179 12.0629 20 11.7808 20 11.4327V7.33614C20 7.19622 19.9534 7.06008 19.8677 6.94957Z" fill="black"/>
<path d="M4.55883 7.60925H1.65965C1.31153 7.60925 1.02942 7.8914 1.02942 8.23949C1.02942 8.58761 1.31157 8.86972 1.65965 8.86972H4.55879C4.90692 8.86972 5.18903 8.58757 5.18903 8.23949C5.18907 7.8914 4.90692 7.60925 4.55883 7.60925Z" fill="black"/>
<path d="M6.0084 5.13023H0.630234C0.282148 5.13023 0 5.41238 0 5.76051C0 6.10863 0.282148 6.39074 0.630234 6.39074H6.0084C6.35652 6.39074 6.63863 6.10859 6.63863 5.76051C6.63863 5.41242 6.35652 5.13023 6.0084 5.13023Z" fill="black"/>
<path d="M7.03782 2.65125H1.65965C1.31153 2.65125 1.02942 2.93339 1.02942 3.28148C1.02942 3.6296 1.31157 3.91171 1.65965 3.91171H7.03782C7.38594 3.91171 7.66805 3.62957 7.66805 3.28148C7.66809 2.93339 7.38594 2.65125 7.03782 2.65125Z" fill="black"/>
</svg>
